<mxfile host="Electron" modified="2023-10-26T13:47:38.130Z" agent="Mozilla/5.0 (Macintosh; Intel Mac OS X 10_15_7) AppleWebKit/537.36 (KHTML, like Gecko) draw.io/22.0.3 Chrome/114.0.5735.289 Electron/25.8.4 Safari/537.36" etag="RUjGFXcXdaApshhvnMia" version="22.0.3" type="device">
  <diagram id="C5RBs43oDa-KdzZeNtuy" name="Page-1">
    <mxGraphModel dx="2190" dy="850" grid="1" gridSize="10" guides="1" tooltips="1" connect="1" arrows="1" fold="1" page="1" pageScale="1" pageWidth="827" pageHeight="1169" math="0" shadow="0">
      <root>
        <mxCell id="WIyWlLk6GJQsqaUBKTNV-0" />
        <mxCell id="WIyWlLk6GJQsqaUBKTNV-1" parent="WIyWlLk6GJQsqaUBKTNV-0" />
        <mxCell id="VjrjLNJzIZB7ZOqzkGBp-196" value="Person" style="swimlane;fontStyle=1;align=center;verticalAlign=top;childLayout=stackLayout;horizontal=1;startSize=26;horizontalStack=0;resizeParent=1;resizeLast=0;collapsible=1;marginBottom=0;rounded=0;shadow=0;strokeWidth=1;" vertex="1" parent="WIyWlLk6GJQsqaUBKTNV-1">
          <mxGeometry x="-483" y="194" width="160" height="112" as="geometry">
            <mxRectangle x="230" y="140" width="160" height="26" as="alternateBounds" />
          </mxGeometry>
        </mxCell>
        <mxCell id="VjrjLNJzIZB7ZOqzkGBp-197" value="- username: String" style="text;align=left;verticalAlign=top;spacingLeft=4;spacingRight=4;overflow=hidden;rotatable=0;points=[[0,0.5],[1,0.5]];portConstraint=eastwest;" vertex="1" parent="VjrjLNJzIZB7ZOqzkGBp-196">
          <mxGeometry y="26" width="160" height="26" as="geometry" />
        </mxCell>
        <mxCell id="VjrjLNJzIZB7ZOqzkGBp-198" value="- number: String" style="text;align=left;verticalAlign=top;spacingLeft=4;spacingRight=4;overflow=hidden;rotatable=0;points=[[0,0.5],[1,0.5]];portConstraint=eastwest;rounded=0;shadow=0;html=0;" vertex="1" parent="VjrjLNJzIZB7ZOqzkGBp-196">
          <mxGeometry y="52" width="160" height="26" as="geometry" />
        </mxCell>
        <mxCell id="VjrjLNJzIZB7ZOqzkGBp-199" value="- email: String" style="text;align=left;verticalAlign=top;spacingLeft=4;spacingRight=4;overflow=hidden;rotatable=0;points=[[0,0.5],[1,0.5]];portConstraint=eastwest;rounded=0;shadow=0;html=0;" vertex="1" parent="VjrjLNJzIZB7ZOqzkGBp-196">
          <mxGeometry y="78" width="160" height="26" as="geometry" />
        </mxCell>
        <mxCell id="VjrjLNJzIZB7ZOqzkGBp-200" value="" style="line;html=1;strokeWidth=1;align=left;verticalAlign=middle;spacingTop=-1;spacingLeft=3;spacingRight=3;rotatable=0;labelPosition=right;points=[];portConstraint=eastwest;" vertex="1" parent="VjrjLNJzIZB7ZOqzkGBp-196">
          <mxGeometry y="104" width="160" height="8" as="geometry" />
        </mxCell>
        <mxCell id="VjrjLNJzIZB7ZOqzkGBp-201" value="Admin" style="swimlane;fontStyle=1;align=center;verticalAlign=top;childLayout=stackLayout;horizontal=1;startSize=26;horizontalStack=0;resizeParent=1;resizeLast=0;collapsible=1;marginBottom=0;rounded=0;shadow=0;strokeWidth=1;" vertex="1" parent="WIyWlLk6GJQsqaUBKTNV-1">
          <mxGeometry x="-743" y="404" width="160" height="112" as="geometry">
            <mxRectangle x="230" y="140" width="160" height="26" as="alternateBounds" />
          </mxGeometry>
        </mxCell>
        <mxCell id="VjrjLNJzIZB7ZOqzkGBp-202" value="- username: String" style="text;align=left;verticalAlign=top;spacingLeft=4;spacingRight=4;overflow=hidden;rotatable=0;points=[[0,0.5],[1,0.5]];portConstraint=eastwest;" vertex="1" parent="VjrjLNJzIZB7ZOqzkGBp-201">
          <mxGeometry y="26" width="160" height="26" as="geometry" />
        </mxCell>
        <mxCell id="VjrjLNJzIZB7ZOqzkGBp-203" value="- number: String" style="text;align=left;verticalAlign=top;spacingLeft=4;spacingRight=4;overflow=hidden;rotatable=0;points=[[0,0.5],[1,0.5]];portConstraint=eastwest;rounded=0;shadow=0;html=0;" vertex="1" parent="VjrjLNJzIZB7ZOqzkGBp-201">
          <mxGeometry y="52" width="160" height="26" as="geometry" />
        </mxCell>
        <mxCell id="VjrjLNJzIZB7ZOqzkGBp-204" value="- email: String" style="text;align=left;verticalAlign=top;spacingLeft=4;spacingRight=4;overflow=hidden;rotatable=0;points=[[0,0.5],[1,0.5]];portConstraint=eastwest;rounded=0;shadow=0;html=0;" vertex="1" parent="VjrjLNJzIZB7ZOqzkGBp-201">
          <mxGeometry y="78" width="160" height="26" as="geometry" />
        </mxCell>
        <mxCell id="VjrjLNJzIZB7ZOqzkGBp-205" value="" style="line;html=1;strokeWidth=1;align=left;verticalAlign=middle;spacingTop=-1;spacingLeft=3;spacingRight=3;rotatable=0;labelPosition=right;points=[];portConstraint=eastwest;" vertex="1" parent="VjrjLNJzIZB7ZOqzkGBp-201">
          <mxGeometry y="104" width="160" height="8" as="geometry" />
        </mxCell>
        <mxCell id="VjrjLNJzIZB7ZOqzkGBp-206" value="User" style="swimlane;fontStyle=1;align=center;verticalAlign=top;childLayout=stackLayout;horizontal=1;startSize=26;horizontalStack=0;resizeParent=1;resizeLast=0;collapsible=1;marginBottom=0;rounded=0;shadow=0;strokeWidth=1;" vertex="1" parent="WIyWlLk6GJQsqaUBKTNV-1">
          <mxGeometry x="-223" y="410" width="160" height="114" as="geometry">
            <mxRectangle x="230" y="140" width="160" height="26" as="alternateBounds" />
          </mxGeometry>
        </mxCell>
        <mxCell id="VjrjLNJzIZB7ZOqzkGBp-207" value="- username: String" style="text;align=left;verticalAlign=top;spacingLeft=4;spacingRight=4;overflow=hidden;rotatable=0;points=[[0,0.5],[1,0.5]];portConstraint=eastwest;" vertex="1" parent="VjrjLNJzIZB7ZOqzkGBp-206">
          <mxGeometry y="26" width="160" height="26" as="geometry" />
        </mxCell>
        <mxCell id="VjrjLNJzIZB7ZOqzkGBp-208" value="- number: String" style="text;align=left;verticalAlign=top;spacingLeft=4;spacingRight=4;overflow=hidden;rotatable=0;points=[[0,0.5],[1,0.5]];portConstraint=eastwest;rounded=0;shadow=0;html=0;" vertex="1" parent="VjrjLNJzIZB7ZOqzkGBp-206">
          <mxGeometry y="52" width="160" height="26" as="geometry" />
        </mxCell>
        <mxCell id="VjrjLNJzIZB7ZOqzkGBp-209" value="- email: String" style="text;align=left;verticalAlign=top;spacingLeft=4;spacingRight=4;overflow=hidden;rotatable=0;points=[[0,0.5],[1,0.5]];portConstraint=eastwest;rounded=0;shadow=0;html=0;" vertex="1" parent="VjrjLNJzIZB7ZOqzkGBp-206">
          <mxGeometry y="78" width="160" height="26" as="geometry" />
        </mxCell>
        <mxCell id="VjrjLNJzIZB7ZOqzkGBp-210" value="" style="line;html=1;strokeWidth=1;align=left;verticalAlign=middle;spacingTop=-1;spacingLeft=3;spacingRight=3;rotatable=0;labelPosition=right;points=[];portConstraint=eastwest;" vertex="1" parent="VjrjLNJzIZB7ZOqzkGBp-206">
          <mxGeometry y="104" width="160" height="8" as="geometry" />
        </mxCell>
        <mxCell id="VjrjLNJzIZB7ZOqzkGBp-211" value="" style="endArrow=block;endSize=16;endFill=0;html=1;rounded=0;exitX=0.5;exitY=0;exitDx=0;exitDy=0;entryX=0.5;entryY=1;entryDx=0;entryDy=0;" edge="1" parent="WIyWlLk6GJQsqaUBKTNV-1" source="VjrjLNJzIZB7ZOqzkGBp-201" target="VjrjLNJzIZB7ZOqzkGBp-196">
          <mxGeometry width="160" relative="1" as="geometry">
            <mxPoint x="-423" y="354" as="sourcePoint" />
            <mxPoint x="-263" y="354" as="targetPoint" />
            <Array as="points">
              <mxPoint x="-663" y="374" />
              <mxPoint x="-403" y="374" />
            </Array>
          </mxGeometry>
        </mxCell>
        <mxCell id="VjrjLNJzIZB7ZOqzkGBp-212" value="" style="endArrow=none;html=1;rounded=0;exitX=0.5;exitY=0;exitDx=0;exitDy=0;" edge="1" parent="WIyWlLk6GJQsqaUBKTNV-1" source="VjrjLNJzIZB7ZOqzkGBp-206">
          <mxGeometry width="50" height="50" relative="1" as="geometry">
            <mxPoint x="-363" y="384" as="sourcePoint" />
            <mxPoint x="-503" y="374" as="targetPoint" />
            <Array as="points">
              <mxPoint x="-143" y="374" />
            </Array>
          </mxGeometry>
        </mxCell>
        <mxCell id="VjrjLNJzIZB7ZOqzkGBp-213" value="Genre" style="swimlane;fontStyle=1;align=center;verticalAlign=top;childLayout=stackLayout;horizontal=1;startSize=26;horizontalStack=0;resizeParent=1;resizeParentMax=0;resizeLast=0;collapsible=1;marginBottom=0;whiteSpace=wrap;html=1;" vertex="1" parent="WIyWlLk6GJQsqaUBKTNV-1">
          <mxGeometry x="-743" y="628" width="160" height="60" as="geometry" />
        </mxCell>
        <mxCell id="VjrjLNJzIZB7ZOqzkGBp-214" value="- name: String" style="text;strokeColor=none;fillColor=none;align=left;verticalAlign=top;spacingLeft=4;spacingRight=4;overflow=hidden;rotatable=0;points=[[0,0.5],[1,0.5]];portConstraint=eastwest;whiteSpace=wrap;html=1;" vertex="1" parent="VjrjLNJzIZB7ZOqzkGBp-213">
          <mxGeometry y="26" width="160" height="26" as="geometry" />
        </mxCell>
        <mxCell id="VjrjLNJzIZB7ZOqzkGBp-215" value="" style="line;strokeWidth=1;fillColor=none;align=left;verticalAlign=middle;spacingTop=-1;spacingLeft=3;spacingRight=3;rotatable=0;labelPosition=right;points=[];portConstraint=eastwest;strokeColor=inherit;" vertex="1" parent="VjrjLNJzIZB7ZOqzkGBp-213">
          <mxGeometry y="52" width="160" height="8" as="geometry" />
        </mxCell>
        <mxCell id="VjrjLNJzIZB7ZOqzkGBp-216" value="Event" style="swimlane;fontStyle=1;align=center;verticalAlign=top;childLayout=stackLayout;horizontal=1;startSize=26;horizontalStack=0;resizeParent=1;resizeParentMax=0;resizeLast=0;collapsible=1;marginBottom=0;whiteSpace=wrap;html=1;" vertex="1" parent="WIyWlLk6GJQsqaUBKTNV-1">
          <mxGeometry x="-743" y="800" width="160" height="112" as="geometry" />
        </mxCell>
        <mxCell id="VjrjLNJzIZB7ZOqzkGBp-217" value="- name: String&lt;br&gt;&lt;br&gt;" style="text;strokeColor=none;fillColor=none;align=left;verticalAlign=top;spacingLeft=4;spacingRight=4;overflow=hidden;rotatable=0;points=[[0,0.5],[1,0.5]];portConstraint=eastwest;whiteSpace=wrap;html=1;" vertex="1" parent="VjrjLNJzIZB7ZOqzkGBp-216">
          <mxGeometry y="26" width="160" height="26" as="geometry" />
        </mxCell>
        <mxCell id="VjrjLNJzIZB7ZOqzkGBp-218" value="- description: String&lt;br&gt;" style="text;strokeColor=none;fillColor=none;align=left;verticalAlign=top;spacingLeft=4;spacingRight=4;overflow=hidden;rotatable=0;points=[[0,0.5],[1,0.5]];portConstraint=eastwest;whiteSpace=wrap;html=1;" vertex="1" parent="VjrjLNJzIZB7ZOqzkGBp-216">
          <mxGeometry y="52" width="160" height="26" as="geometry" />
        </mxCell>
        <mxCell id="VjrjLNJzIZB7ZOqzkGBp-219" value="- price: Integer" style="text;strokeColor=none;fillColor=none;align=left;verticalAlign=top;spacingLeft=4;spacingRight=4;overflow=hidden;rotatable=0;points=[[0,0.5],[1,0.5]];portConstraint=eastwest;whiteSpace=wrap;html=1;" vertex="1" parent="VjrjLNJzIZB7ZOqzkGBp-216">
          <mxGeometry y="78" width="160" height="26" as="geometry" />
        </mxCell>
        <mxCell id="VjrjLNJzIZB7ZOqzkGBp-220" value="" style="line;strokeWidth=1;fillColor=none;align=left;verticalAlign=middle;spacingTop=-1;spacingLeft=3;spacingRight=3;rotatable=0;labelPosition=right;points=[];portConstraint=eastwest;strokeColor=inherit;" vertex="1" parent="VjrjLNJzIZB7ZOqzkGBp-216">
          <mxGeometry y="104" width="160" height="8" as="geometry" />
        </mxCell>
        <mxCell id="VjrjLNJzIZB7ZOqzkGBp-221" value="" style="endArrow=openThin;html=1;rounded=0;exitX=0.5;exitY=0;exitDx=0;exitDy=0;entryX=0.5;entryY=1;entryDx=0;entryDy=0;endFill=0;" edge="1" parent="WIyWlLk6GJQsqaUBKTNV-1" source="VjrjLNJzIZB7ZOqzkGBp-216" target="VjrjLNJzIZB7ZOqzkGBp-213">
          <mxGeometry width="50" height="50" relative="1" as="geometry">
            <mxPoint x="-563" y="724" as="sourcePoint" />
            <mxPoint x="-662.3599999999999" y="714.1299999999999" as="targetPoint" />
          </mxGeometry>
        </mxCell>
        <mxCell id="VjrjLNJzIZB7ZOqzkGBp-222" value="" style="endArrow=open;html=1;rounded=0;exitX=0;exitY=0.5;exitDx=0;exitDy=0;entryX=0;entryY=0.5;entryDx=0;entryDy=0;endFill=0;" edge="1" parent="WIyWlLk6GJQsqaUBKTNV-1" source="VjrjLNJzIZB7ZOqzkGBp-203" target="VjrjLNJzIZB7ZOqzkGBp-218">
          <mxGeometry width="50" height="50" relative="1" as="geometry">
            <mxPoint x="-613" y="664" as="sourcePoint" />
            <mxPoint x="-563" y="614" as="targetPoint" />
            <Array as="points">
              <mxPoint x="-803" y="469" />
              <mxPoint x="-803" y="694" />
              <mxPoint x="-803" y="864" />
            </Array>
          </mxGeometry>
        </mxCell>
        <mxCell id="VjrjLNJzIZB7ZOqzkGBp-223" value="Favorite" style="swimlane;fontStyle=1;align=center;verticalAlign=top;childLayout=stackLayout;horizontal=1;startSize=26;horizontalStack=0;resizeParent=1;resizeParentMax=0;resizeLast=0;collapsible=1;marginBottom=0;whiteSpace=wrap;html=1;" vertex="1" parent="WIyWlLk6GJQsqaUBKTNV-1">
          <mxGeometry x="-223" y="636" width="160" height="112" as="geometry" />
        </mxCell>
        <mxCell id="VjrjLNJzIZB7ZOqzkGBp-224" value="- name: String&lt;br&gt;&lt;br&gt;" style="text;strokeColor=none;fillColor=none;align=left;verticalAlign=top;spacingLeft=4;spacingRight=4;overflow=hidden;rotatable=0;points=[[0,0.5],[1,0.5]];portConstraint=eastwest;whiteSpace=wrap;html=1;" vertex="1" parent="VjrjLNJzIZB7ZOqzkGBp-223">
          <mxGeometry y="26" width="160" height="26" as="geometry" />
        </mxCell>
        <mxCell id="VjrjLNJzIZB7ZOqzkGBp-225" value="- description: String&lt;br&gt;" style="text;strokeColor=none;fillColor=none;align=left;verticalAlign=top;spacingLeft=4;spacingRight=4;overflow=hidden;rotatable=0;points=[[0,0.5],[1,0.5]];portConstraint=eastwest;whiteSpace=wrap;html=1;" vertex="1" parent="VjrjLNJzIZB7ZOqzkGBp-223">
          <mxGeometry y="52" width="160" height="26" as="geometry" />
        </mxCell>
        <mxCell id="VjrjLNJzIZB7ZOqzkGBp-226" value="- price: Integer" style="text;strokeColor=none;fillColor=none;align=left;verticalAlign=top;spacingLeft=4;spacingRight=4;overflow=hidden;rotatable=0;points=[[0,0.5],[1,0.5]];portConstraint=eastwest;whiteSpace=wrap;html=1;" vertex="1" parent="VjrjLNJzIZB7ZOqzkGBp-223">
          <mxGeometry y="78" width="160" height="26" as="geometry" />
        </mxCell>
        <mxCell id="VjrjLNJzIZB7ZOqzkGBp-227" value="" style="line;strokeWidth=1;fillColor=none;align=left;verticalAlign=middle;spacingTop=-1;spacingLeft=3;spacingRight=3;rotatable=0;labelPosition=right;points=[];portConstraint=eastwest;strokeColor=inherit;" vertex="1" parent="VjrjLNJzIZB7ZOqzkGBp-223">
          <mxGeometry y="104" width="160" height="8" as="geometry" />
        </mxCell>
        <mxCell id="VjrjLNJzIZB7ZOqzkGBp-228" value="" style="endArrow=none;html=1;rounded=0;exitX=1;exitY=0.5;exitDx=0;exitDy=0;entryX=0.5;entryY=1;entryDx=0;entryDy=0;startArrow=open;startFill=0;endFill=0;" edge="1" parent="WIyWlLk6GJQsqaUBKTNV-1" source="VjrjLNJzIZB7ZOqzkGBp-219" target="VjrjLNJzIZB7ZOqzkGBp-223">
          <mxGeometry width="50" height="50" relative="1" as="geometry">
            <mxPoint x="-582.9999999999998" y="925" as="sourcePoint" />
            <mxPoint x="-146.68000000000006" y="776.9899999999998" as="targetPoint" />
            <Array as="points">
              <mxPoint x="-363" y="894" />
              <mxPoint x="-143" y="891" />
            </Array>
          </mxGeometry>
        </mxCell>
        <mxCell id="VjrjLNJzIZB7ZOqzkGBp-229" value="" style="endArrow=none;html=1;rounded=0;exitX=0.5;exitY=0;exitDx=0;exitDy=0;entryX=0.5;entryY=1;entryDx=0;entryDy=0;startArrow=open;startFill=0;endFill=0;" edge="1" parent="WIyWlLk6GJQsqaUBKTNV-1" source="VjrjLNJzIZB7ZOqzkGBp-223" target="VjrjLNJzIZB7ZOqzkGBp-206">
          <mxGeometry width="50" height="50" relative="1" as="geometry">
            <mxPoint x="-223" y="664" as="sourcePoint" />
            <mxPoint x="-173" y="614" as="targetPoint" />
          </mxGeometry>
        </mxCell>
        <mxCell id="VjrjLNJzIZB7ZOqzkGBp-230" value="&lt;font style=&quot;font-size: 16px;&quot;&gt;*&lt;/font&gt;" style="text;html=1;strokeColor=none;fillColor=none;align=center;verticalAlign=middle;whiteSpace=wrap;rounded=0;" vertex="1" parent="WIyWlLk6GJQsqaUBKTNV-1">
          <mxGeometry x="-653" y="698" width="30" height="20" as="geometry" />
        </mxCell>
        <mxCell id="VjrjLNJzIZB7ZOqzkGBp-231" value="&lt;font style=&quot;font-size: 16px;&quot;&gt;*&lt;/font&gt;" style="text;html=1;strokeColor=none;fillColor=none;align=center;verticalAlign=middle;whiteSpace=wrap;rounded=0;" vertex="1" parent="WIyWlLk6GJQsqaUBKTNV-1">
          <mxGeometry x="-653" y="774" width="30" height="20" as="geometry" />
        </mxCell>
        <mxCell id="VjrjLNJzIZB7ZOqzkGBp-234" value="&lt;span style=&quot;font-size: 16px;&quot;&gt;1&lt;/span&gt;" style="text;html=1;strokeColor=none;fillColor=none;align=center;verticalAlign=middle;whiteSpace=wrap;rounded=0;" vertex="1" parent="WIyWlLk6GJQsqaUBKTNV-1">
          <mxGeometry x="-583" y="904" width="30" height="20" as="geometry" />
        </mxCell>
        <mxCell id="VjrjLNJzIZB7ZOqzkGBp-235" value="&lt;font style=&quot;font-size: 16px;&quot;&gt;*&lt;/font&gt;" style="text;html=1;strokeColor=none;fillColor=none;align=center;verticalAlign=middle;whiteSpace=wrap;rounded=0;" vertex="1" parent="WIyWlLk6GJQsqaUBKTNV-1">
          <mxGeometry x="-173" y="774" width="30" height="20" as="geometry" />
        </mxCell>
        <mxCell id="VjrjLNJzIZB7ZOqzkGBp-236" value="&lt;span style=&quot;font-size: 16px;&quot;&gt;1&lt;/span&gt;" style="text;html=1;strokeColor=none;fillColor=none;align=center;verticalAlign=middle;whiteSpace=wrap;rounded=0;" vertex="1" parent="WIyWlLk6GJQsqaUBKTNV-1">
          <mxGeometry x="-183" y="534" width="30" height="20" as="geometry" />
        </mxCell>
        <mxCell id="VjrjLNJzIZB7ZOqzkGBp-237" value="&lt;font style=&quot;font-size: 16px;&quot;&gt;*&lt;/font&gt;" style="text;html=1;strokeColor=none;fillColor=none;align=center;verticalAlign=middle;whiteSpace=wrap;rounded=0;" vertex="1" parent="WIyWlLk6GJQsqaUBKTNV-1">
          <mxGeometry x="-183" y="608" width="30" height="20" as="geometry" />
        </mxCell>
        <mxCell id="VjrjLNJzIZB7ZOqzkGBp-238" value="Club" style="swimlane;fontStyle=1;align=center;verticalAlign=top;childLayout=stackLayout;horizontal=1;startSize=26;horizontalStack=0;resizeParent=1;resizeParentMax=0;resizeLast=0;collapsible=1;marginBottom=0;whiteSpace=wrap;html=1;" vertex="1" parent="WIyWlLk6GJQsqaUBKTNV-1">
          <mxGeometry x="-483" y="602" width="160" height="112" as="geometry" />
        </mxCell>
        <mxCell id="VjrjLNJzIZB7ZOqzkGBp-239" value="- name: String&lt;br&gt;&lt;br&gt;" style="text;strokeColor=none;fillColor=none;align=left;verticalAlign=top;spacingLeft=4;spacingRight=4;overflow=hidden;rotatable=0;points=[[0,0.5],[1,0.5]];portConstraint=eastwest;whiteSpace=wrap;html=1;" vertex="1" parent="VjrjLNJzIZB7ZOqzkGBp-238">
          <mxGeometry y="26" width="160" height="26" as="geometry" />
        </mxCell>
        <mxCell id="VjrjLNJzIZB7ZOqzkGBp-240" value="- description: String&lt;br&gt;" style="text;strokeColor=none;fillColor=none;align=left;verticalAlign=top;spacingLeft=4;spacingRight=4;overflow=hidden;rotatable=0;points=[[0,0.5],[1,0.5]];portConstraint=eastwest;whiteSpace=wrap;html=1;" vertex="1" parent="VjrjLNJzIZB7ZOqzkGBp-238">
          <mxGeometry y="52" width="160" height="26" as="geometry" />
        </mxCell>
        <mxCell id="VjrjLNJzIZB7ZOqzkGBp-241" value="- price: Integer" style="text;strokeColor=none;fillColor=none;align=left;verticalAlign=top;spacingLeft=4;spacingRight=4;overflow=hidden;rotatable=0;points=[[0,0.5],[1,0.5]];portConstraint=eastwest;whiteSpace=wrap;html=1;" vertex="1" parent="VjrjLNJzIZB7ZOqzkGBp-238">
          <mxGeometry y="78" width="160" height="26" as="geometry" />
        </mxCell>
        <mxCell id="VjrjLNJzIZB7ZOqzkGBp-242" value="" style="line;strokeWidth=1;fillColor=none;align=left;verticalAlign=middle;spacingTop=-1;spacingLeft=3;spacingRight=3;rotatable=0;labelPosition=right;points=[];portConstraint=eastwest;strokeColor=inherit;" vertex="1" parent="VjrjLNJzIZB7ZOqzkGBp-238">
          <mxGeometry y="104" width="160" height="8" as="geometry" />
        </mxCell>
        <mxCell id="VjrjLNJzIZB7ZOqzkGBp-243" value="" style="endArrow=open;html=1;rounded=0;entryX=1;entryY=0.5;entryDx=0;entryDy=0;endFill=0;exitX=0.5;exitY=1;exitDx=0;exitDy=0;" edge="1" parent="WIyWlLk6GJQsqaUBKTNV-1" source="VjrjLNJzIZB7ZOqzkGBp-238">
          <mxGeometry width="50" height="50" relative="1" as="geometry">
            <mxPoint x="-403" y="744" as="sourcePoint" />
            <mxPoint x="-583" y="813" as="targetPoint" />
            <Array as="points">
              <mxPoint x="-403" y="813" />
              <mxPoint x="-493" y="813" />
            </Array>
          </mxGeometry>
        </mxCell>
        <mxCell id="VjrjLNJzIZB7ZOqzkGBp-245" value="&lt;font style=&quot;font-size: 16px;&quot;&gt;1&lt;/font&gt;" style="text;html=1;strokeColor=none;fillColor=none;align=center;verticalAlign=middle;whiteSpace=wrap;rounded=0;" vertex="1" parent="WIyWlLk6GJQsqaUBKTNV-1">
          <mxGeometry x="-433" y="718" width="30" height="20" as="geometry" />
        </mxCell>
        <mxCell id="VjrjLNJzIZB7ZOqzkGBp-246" value="" style="endArrow=open;html=1;rounded=0;exitX=1;exitY=0.5;exitDx=0;exitDy=0;entryX=0.5;entryY=1;entryDx=0;entryDy=0;endFill=0;" edge="1" parent="WIyWlLk6GJQsqaUBKTNV-1" source="VjrjLNJzIZB7ZOqzkGBp-208" target="VjrjLNJzIZB7ZOqzkGBp-216">
          <mxGeometry width="50" height="50" relative="1" as="geometry">
            <mxPoint x="-533" y="644" as="sourcePoint" />
            <mxPoint x="-483" y="594" as="targetPoint" />
            <Array as="points">
              <mxPoint x="-23" y="474" />
              <mxPoint x="-23" y="974" />
              <mxPoint x="-663" y="974" />
            </Array>
          </mxGeometry>
        </mxCell>
        <mxCell id="VjrjLNJzIZB7ZOqzkGBp-247" value="- event" style="text;html=1;strokeColor=none;fillColor=none;align=center;verticalAlign=middle;whiteSpace=wrap;rounded=0;" vertex="1" parent="WIyWlLk6GJQsqaUBKTNV-1">
          <mxGeometry x="-583" y="854" width="60" height="30" as="geometry" />
        </mxCell>
        <mxCell id="VjrjLNJzIZB7ZOqzkGBp-248" value="- genres" style="text;html=1;strokeColor=none;fillColor=none;align=center;verticalAlign=middle;whiteSpace=wrap;rounded=0;" vertex="1" parent="WIyWlLk6GJQsqaUBKTNV-1">
          <mxGeometry x="-723" y="688" width="60" height="30" as="geometry" />
        </mxCell>
        <mxCell id="VjrjLNJzIZB7ZOqzkGBp-250" value="&lt;font style=&quot;font-size: 16px;&quot;&gt;*&lt;/font&gt;" style="text;html=1;strokeColor=none;fillColor=none;align=center;verticalAlign=middle;whiteSpace=wrap;rounded=0;" vertex="1" parent="WIyWlLk6GJQsqaUBKTNV-1">
          <mxGeometry x="-573" y="814" width="30" height="20" as="geometry" />
        </mxCell>
        <mxCell id="VjrjLNJzIZB7ZOqzkGBp-251" value="- event" style="text;html=1;strokeColor=none;fillColor=none;align=center;verticalAlign=middle;whiteSpace=wrap;rounded=0;" vertex="1" parent="WIyWlLk6GJQsqaUBKTNV-1">
          <mxGeometry x="-583" y="784" width="60" height="30" as="geometry" />
        </mxCell>
        <mxCell id="VjrjLNJzIZB7ZOqzkGBp-252" value="сreates event" style="text;html=1;strokeColor=none;fillColor=none;align=center;verticalAlign=middle;whiteSpace=wrap;rounded=0;" vertex="1" parent="WIyWlLk6GJQsqaUBKTNV-1">
          <mxGeometry x="-303" y="944" width="60" height="30" as="geometry" />
        </mxCell>
        <mxCell id="VjrjLNJzIZB7ZOqzkGBp-253" value="accepts event" style="text;html=1;strokeColor=none;fillColor=none;align=center;verticalAlign=middle;whiteSpace=wrap;rounded=0;" vertex="1" parent="WIyWlLk6GJQsqaUBKTNV-1">
          <mxGeometry x="-803" y="560" width="60" height="30" as="geometry" />
        </mxCell>
        <mxCell id="VjrjLNJzIZB7ZOqzkGBp-254" value="- favorite" style="text;html=1;strokeColor=none;fillColor=none;align=center;verticalAlign=middle;whiteSpace=wrap;rounded=0;" vertex="1" parent="WIyWlLk6GJQsqaUBKTNV-1">
          <mxGeometry x="-133" y="598" width="60" height="30" as="geometry" />
        </mxCell>
      </root>
    </mxGraphModel>
  </diagram>
</mxfile>
